<?xml version="1.0" encoding="UTF-8"?>
<!DOCTYPE svg PUBLIC "-//W3C//DTD SVG 1.1//EN" "http://www.w3.org/Graphics/SVG/1.1/DTD/svg11.dtd">
<!-- Creator: CorelDRAW 2019 (64-Bit) -->
<svg xmlns="http://www.w3.org/2000/svg" xml:space="preserve" width="4.9888in" height="4.7489in" version="1.1" style="shape-rendering:geometricPrecision; text-rendering:geometricPrecision; image-rendering:optimizeQuality; fill-rule:evenodd; clip-rule:evenodd"
viewBox="0 0 5135.15 4888.21"
 xmlns:xlink="http://www.w3.org/1999/xlink"
 xmlns:xodm="http://www.corel.com/coreldraw/odm/2003">
 <defs>
  <style type="text/css">
   <![CDATA[
    .str0 {stroke:white;stroke-width:3.09;stroke-miterlimit:2.61313}
    .fil0 {fill:white}
   ]]>
  </style>
 </defs>
 <g id="Layer_x0020_1">
  <metadata id="CorelCorpID_0Corel-Layer"/>
  <path class="fil0 str0" d="M2567.57 3140.01l475.19 -790.85 -596.52 0 0 -130.9 675.17 0 650.58 -1082.74c21.64,-36.01 22.18,-77.75 1.5,-114.32 -20.69,-36.57 -56.75,-57.59 -98.76,-57.59l-23.55 0 0 -130.9 224.1 0 78.65 0 68.88 0 898.84 0 211.95 0 0 130.9c-116.74,0 -211.95,95.21 -211.95,211.95l0 3366.82c0,116.74 95.21,211.95 211.95,211.95l0 130.9 -211.95 0 -898.84 0 -211.95 0 0 -130.9c116.74,0 211.95,-95.21 211.95,-211.95l0 -2079.09 -1455.24 2421.93 -1455.24 -2421.93 0 2079.09c0,116.74 95.21,211.95 211.95,211.95l0 130.9 -211.95 0 -898.84 0 -211.95 0 0 -130.9c116.74,0 211.95,-95.21 211.95,-211.95l0 -3366.82c0,-116.74 -95.21,-211.95 -211.95,-211.95l0 -130.9 211.95 0 898.84 0 68.88 0 78.65 0 224.1 0 1339.35 0 0 130.9 -1339.35 0 -23.55 0c-42.01,0 -78.07,21.03 -98.76,57.59 -20.69,36.57 -20.14,78.31 1.5,114.32l1204.42 2004.49z"/>
  <rect class="fil0 str0" x="1346.56" y="1.54" width="2442.04" height="342.44"/>
 </g>
</svg>
